<svg width="126" height="33" viewBox="0 0 126 33" fill="none" xmlns="http://www.w3.org/2000/svg">
<g transform="translate(-12.875 -62.1738)">
<path d="M127.367 79.9277C127.006 80.4062 126.825 80.7871 126.825 81.0703C126.825 81.3438 126.869 81.5586 126.957 81.7148C127.045 81.8613 127.235 82.0029 127.528 82.1396C128.173 82.4424 129.232 82.7109 130.707 82.9453C132.182 83.1699 133.334 83.4531 134.164 83.7949C135.004 84.1367 135.683 84.5566 136.2 85.0547C137.167 86.002 137.65 87.3447 137.65 89.083C137.65 90.8213 137.04 92.1543 135.819 93.082C134.599 94.0195 132.787 94.4883 130.385 94.4883C127.963 94.4883 126.01 93.9609 124.525 92.9062C123.041 91.8516 122.279 90.4502 122.24 88.7021C122.182 86.6709 122.978 85.2012 124.628 84.293C124.179 83.9219 123.876 83.4873 123.72 82.9893C123.573 82.4814 123.5 81.9053 123.5 81.2607C123.5 80.1768 123.974 79.2588 124.921 78.5068C123.817 77.4619 123.266 76.1631 123.266 74.6104C123.266 72.8721 123.891 71.417 125.141 70.2451C126.459 69.0146 128.168 68.3994 130.268 68.3994C131.371 68.3994 132.406 68.6045 133.373 69.0146C134.643 68.4775 135.575 68.0088 136.171 67.6084C136.767 67.1982 137.147 66.9004 137.313 66.7148L137.401 66.7295C137.489 66.9639 137.592 67.2959 137.709 67.7256L137.973 68.7803C138.207 69.6494 138.349 70.2451 138.397 70.5674C137.968 71.0361 137.211 71.3682 136.127 71.5635C136.547 72.374 136.757 73.2334 136.757 74.1416C136.757 75.0498 136.601 75.875 136.288 76.6172C135.976 77.3496 135.531 77.9941 134.955 78.5508C133.676 79.752 132.045 80.3525 130.062 80.3525C129.096 80.3525 128.197 80.2109 127.367 79.9277ZM126.986 73.3359C126.85 73.6875 126.781 74.0439 126.781 74.4053C126.781 74.7666 126.854 75.1133 127.001 75.4453C127.157 75.7773 127.382 76.0752 127.675 76.3389C128.329 76.9248 129.184 77.2178 130.238 77.2178C131.039 77.2178 131.732 76.9492 132.318 76.4121C132.934 75.8262 133.241 75.123 133.241 74.3027C133.241 73.4727 132.963 72.8037 132.406 72.2959C131.85 71.7881 131.083 71.5342 130.106 71.5342C128.495 71.5342 127.455 72.1348 126.986 73.3359ZM130.575 91.3828C132.978 91.3828 134.179 90.543 134.179 88.8633C134.179 88.0625 133.788 87.418 133.007 86.9297C132.128 86.373 130.619 85.9385 128.48 85.626L127.719 85.4941C127.074 85.8359 126.601 86.2754 126.298 86.8125C125.995 87.3496 125.844 87.8574 125.844 88.3359C125.853 88.8242 125.971 89.2441 126.195 89.5957C126.42 89.9473 126.732 90.2549 127.133 90.5186C128.021 91.0947 129.169 91.3828 130.575 91.3828Z" fill="#737373"/>
<path d="M104.677 76.4268C104.677 75.3525 104.857 74.3271 105.219 73.3506C105.59 72.3643 106.117 71.5049 106.801 70.7725C108.295 69.1904 110.233 68.3994 112.616 68.3994C114.989 68.3994 116.874 69.1465 118.271 70.6406C119.608 72.0664 120.277 73.917 120.277 76.1924C120.277 78.4678 119.589 80.3525 118.212 81.8467C116.757 83.4287 114.828 84.2197 112.426 84.2197C109.945 84.2197 108.002 83.4434 106.596 81.8906C105.316 80.4746 104.677 78.6533 104.677 76.4268ZM108.236 76.3389C108.236 76.9541 108.339 77.5498 108.544 78.126C108.749 78.7021 109.042 79.1953 109.423 79.6055C110.233 80.4941 111.298 80.9385 112.616 80.9385C113.837 80.9385 114.799 80.5039 115.502 79.6348C116.186 78.7949 116.527 77.7012 116.527 76.3535C116.527 74.9863 116.176 73.8828 115.473 73.043C114.721 72.1445 113.69 71.6953 112.382 71.6953C111.054 71.6953 110.014 72.1738 109.262 73.1309C108.578 74.0098 108.236 75.0791 108.236 76.3389Z" fill="#737373"/>
<path d="M96.4736 84C95.0381 84 94.0859 84.0293 93.6172 84.0879V64.4297C93.8516 64.4883 94.335 64.5176 95.0674 64.5176C95.8096 64.5176 96.6689 64.498 97.6455 64.459V80.4844H100.678C101.557 80.4844 102.26 80.4551 102.787 80.3965C102.719 82.6816 102.685 83.8682 102.685 83.9561V84.1025C101.728 84.0342 100.121 84 97.8652 84H96.4736Z" fill="#737373"/>
<path d="M76.8154 89.0977L77.7822 88.3213C79.2373 87.1396 80.4434 85.3965 81.4004 83.0918L82.0742 81.4658L76.4639 68.6924H80.5654L84.0811 77.54L87.3477 68.6924H91.5664C91.0586 69.3955 90.4385 70.7041 89.7061 72.6182L87.5088 78.0527C84.5693 84.9668 82.2646 89.0879 80.5947 90.416L76.8154 89.0977Z" fill="#0A0A0A"/>
<path d="M71.1758 83.1797C69.9355 83.873 68.6953 84.2197 67.4551 84.2197C66.2148 84.2197 65.1309 84.0244 64.2031 83.6338C63.2754 83.2432 62.4844 82.7061 61.8301 82.0225C60.4824 80.6162 59.8086 78.79 59.8086 76.5439C59.8086 74.2197 60.5898 72.2861 62.1523 70.7432C63.7246 69.1807 65.7363 68.3994 68.1875 68.3994C68.9395 68.3994 69.6768 68.4971 70.3994 68.6924V62.1738H73.9883V77.833C73.9883 79.1318 74.0469 79.9814 74.1641 80.3818C74.291 80.7822 74.4277 81.0752 74.5742 81.2607C74.7305 81.4463 74.9258 81.6221 75.1602 81.7881L72.4062 84.2197C71.8984 83.9463 71.4883 83.5996 71.1758 83.1797ZM68.1436 80.8506C68.9639 80.8506 69.7158 80.6943 70.3994 80.3818V72.2666C69.7158 71.9834 68.9736 71.8418 68.1729 71.8418C67.3721 71.8418 66.6836 71.9492 66.1074 72.1641C65.541 72.3789 65.0527 72.6768 64.6426 73.0576C63.7832 73.8584 63.3535 74.8984 63.3535 76.1777C63.3535 77.5742 63.7441 78.6875 64.5254 79.5176C65.3652 80.4062 66.5713 80.8506 68.1436 80.8506Z" fill="#0A0A0A"/>
<path d="M52.3525 82.667C51.1025 83.7021 49.7402 84.2197 48.2656 84.2197C46.6836 84.2197 45.4434 83.6875 44.5449 82.623C43.6855 81.5879 43.2559 80.167 43.2559 78.3604V72.5449C43.2559 70.5918 43.2119 69.4736 43.124 69.1904C43.0459 68.8975 42.9873 68.7119 42.9482 68.6338C43.3975 68.6729 43.8662 68.6924 44.3545 68.6924H45.5703C45.8926 68.6924 46.3174 68.6777 46.8447 68.6484V77.1299C46.8447 79.1416 47.3916 80.3086 48.4854 80.6309C48.8174 80.7285 49.1787 80.7773 49.5693 80.7773C50.7217 80.7773 51.6494 80.3574 52.3525 79.5176V68.6924H55.9854V82.125C55.9854 82.9844 56.0244 83.6094 56.1025 84H52.3525V82.667Z" fill="#0A0A0A"/>
<path d="M37.4404 80.7773C38.7002 80.7773 39.5645 80.4502 40.0332 79.7959H40.1504L40.1943 83.1943C39.7158 83.6729 38.8271 83.9902 37.5283 84.1465C37.1768 84.1953 36.7373 84.2197 36.21 84.2197C35.6924 84.2197 35.126 84.1221 34.5107 83.9268C33.9053 83.7314 33.3877 83.4141 32.958 82.9746C32.0693 82.0664 31.625 80.6455 31.625 78.7119V72.0615H29.4131C29.4033 71.7783 29.3984 71.4902 29.3984 71.1973V68.9414C29.3984 68.7754 29.4033 68.6924 29.4131 68.6924H31.625V64.5176H35.2139V68.6924H39.2422V72.0615H35.2139V78.0381C35.2139 79.5713 35.6387 80.4453 36.4883 80.6602C36.7617 80.7383 37.0791 80.7773 37.4404 80.7773Z" fill="#0A0A0A"/>
<path d="M25.2822 65.6016L25.0039 69.9082L24.9014 69.9375C24.1787 68.8535 22.9482 68.1504 21.21 67.8281C20.6631 67.7207 20.1357 67.667 19.6279 67.667C19.1299 67.667 18.7002 67.7109 18.3389 67.7988C17.9873 67.8867 17.6846 68.0137 17.4307 68.1797C16.8936 68.5312 16.625 68.9902 16.625 69.5566C16.625 70.2988 16.8594 70.8555 17.3281 71.2266C17.9141 71.6758 18.8857 71.9932 20.2432 72.1787C21.6006 72.3545 22.6895 72.5986 23.5098 72.9111C24.3301 73.2236 25.0039 73.6191 25.5312 74.0977C26.5273 74.9961 27.0254 76.2656 27.0254 77.9062C27.0254 80.0547 26.2148 81.71 24.5938 82.8721C23.207 83.8682 21.459 84.3662 19.3496 84.3662C17.6504 84.3662 15.9707 84.0439 14.3105 83.3994C13.7637 83.1846 13.2852 82.9355 12.875 82.6523L13.0361 77.7598L13.0947 77.7158C14.3057 79.8057 16.293 80.8506 19.0566 80.8506C21.0195 80.8506 22.3184 80.377 22.9531 79.4297C23.168 79.1074 23.2754 78.751 23.2754 78.3604C23.2754 77.96 23.2119 77.6328 23.085 77.3789C22.958 77.1152 22.748 76.8906 22.4551 76.7051C21.8887 76.334 20.9365 76.085 19.5986 75.958C18.2607 75.8311 17.167 75.5918 16.3174 75.2402C15.4678 74.8887 14.7891 74.4541 14.2812 73.9365C13.3633 72.999 12.9043 71.6904 12.9043 70.0107C12.9043 68.2725 13.5146 66.8662 14.7354 65.792C15.9756 64.6982 17.6455 64.1514 19.7451 64.1514C21.8545 64.1514 23.7002 64.6348 25.2822 65.6016Z" fill="#0A0A0A"/>
</g>
</svg>
